<svg width="65" height="65" viewBox="0 0 65 65" fill="none" xmlns="http://www.w3.org/2000/svg">
<rect width="65" height="65" fill="white"/>
<rect x="1.5" y="12.5" width="62" height="25" rx="3.5" fill="white" stroke="#282057" stroke-width="3"/>
<line x1="3" y1="30.5" x2="62" y2="30.5" stroke="#282057"/>
<line x1="3" y1="32.5" x2="62" y2="32.5" stroke="#282057"/>
<line x1="3" y1="34.5" x2="62" y2="34.5" stroke="#282057"/>
<line x1="28" y1="24" x2="38" y2="24" stroke="#282057" stroke-width="2" stroke-linecap="round"/>
<path d="M26.193 42C21.3596 43.6667 19.893 48 26.193 52.5C29.6929 55 31.0263 61.8333 26.193 63.5" stroke="#282057"/>
<path d="M33.193 42C28.3596 43.6667 26.893 48 33.193 52.5C36.6929 55 38.0263 61.8333 33.193 63.5" stroke="#282057"/>
<path d="M41.193 42C36.3596 43.6667 34.893 48 41.193 52.5C44.6929 55 46.0263 61.8333 41.193 63.5" stroke="#282057"/>
</svg>
