<svg width="65" height="65" viewBox="0 0 65 65" fill="none" xmlns="http://www.w3.org/2000/svg">
<rect width="65" height="65" fill="#FFFCFC"/>
<rect x="24.6925" y="33.2136" width="20.5594" height="16.2634" rx="5.5" transform="rotate(-90.5 24.6925 33.2136)" stroke="#282057" stroke-width="3"/>
<path d="M40.5 33.5H47C52.2467 33.5 56.5 37.7533 56.5 43V56C56.5 57.3807 55.3807 58.5 54 58.5H40.5V33.5Z" stroke="#282057" stroke-width="3"/>
<path d="M24.5 33.5H18C12.7533 33.5 8.5 37.7533 8.5 43V56C8.5 57.3807 9.61929 58.5 11 58.5H24.5V33.5Z" stroke="#282057" stroke-width="3"/>
<path d="M14.5 33C14.5 24.4396 21.4396 17.5 30 17.5H35C43.5604 17.5 50.5 24.4396 50.5 33V57C50.5 60.5899 47.5899 63.5 44 63.5H21C17.4101 63.5 14.5 60.5899 14.5 57V33Z" fill="#FFFBFB" stroke="#282057" stroke-width="3"/>
<line x1="17" y1="48.5" x2="23" y2="48.5" stroke="#282057"/>
<line x1="25" y1="48.5" x2="27" y2="48.5" stroke="#282057"/>
<line x1="30" y1="48.5" x2="47" y2="48.5" stroke="#282057"/>
<circle cx="32.5" cy="33.5" r="1.5" fill="#282057"/>
<path d="M14.5 30.16C14.5 23.7204 19.7204 18.5 26.16 18.5H37.04C43.9215 18.5 49.5 24.0785 49.5 30.96V31.68C49.5 34.342 47.342 36.5 44.68 36.5H20.84C17.3385 36.5 14.5 33.6615 14.5 30.16Z" stroke="#282057"/>
<path d="M45 58L45.449 59.382H46.9021L45.7265 60.2361L46.1756 61.618L45 60.7639L43.8244 61.618L44.2735 60.2361L43.0979 59.382H44.551L45 58Z" fill="#282057"/>
<path d="M44 56L44.2245 56.691H44.9511L44.3633 57.118L44.5878 57.809L44 57.382L43.4122 57.809L43.6367 57.118L43.0489 56.691H43.7755L44 56Z" fill="#282057"/>
<path d="M42 58L42.2245 58.691H42.9511L42.3633 59.118L42.5878 59.809L42 59.382L41.4122 59.809L41.6367 59.118L41.0489 58.691H41.7755L42 58Z" fill="#282057"/>
</svg>
