<svg width="65" height="65" viewBox="0 0 65 65" fill="none" xmlns="http://www.w3.org/2000/svg">
<rect width="65" height="65" fill="white"/>
<rect x="1" y="11" width="63" height="45" rx="4" fill="white" stroke="#282057" stroke-width="2"/>
<line x1="4" y1="24.5" x2="53" y2="24.5" stroke="#282057"/>
<line x1="56" y1="24.5" x2="60" y2="24.5" stroke="#282057"/>
<line x1="8.5" y1="8.5" x2="8.5" y2="15.5" stroke="#282057" stroke-linecap="round"/>
<line x1="8.5" y1="8.5" x2="8.5" y2="15.5" stroke="#282057" stroke-linecap="round"/>
<line x1="12.5" y1="8.5" x2="12.5" y2="15.5" stroke="#282057" stroke-linecap="round"/>
<line x1="12.5" y1="8.5" x2="12.5" y2="15.5" stroke="#282057" stroke-linecap="round"/>
<line x1="16.5" y1="8.5" x2="16.5" y2="15.5" stroke="#282057" stroke-linecap="round"/>
<line x1="16.5" y1="8.5" x2="16.5" y2="15.5" stroke="#282057" stroke-linecap="round"/>
<line x1="24" y1="20.5" x2="57" y2="20.5" stroke="#282057"/>
<line x1="24" y1="16.5" x2="57" y2="16.5" stroke="#282057"/>
<rect x="7.5" y="31.5" width="6" height="5" rx="0.5" fill="white" stroke="#282057"/>
<rect x="19.5" y="31.5" width="6" height="5" rx="0.5" fill="white" stroke="#282057"/>
<rect x="31.5" y="31.5" width="6" height="5" rx="0.5" fill="white" stroke="#282057"/>
<rect x="43.5" y="31.5" width="6" height="5" rx="0.5" fill="white" stroke="#282057"/>
<rect x="55.5" y="31.5" width="6" height="5" rx="0.5" fill="white" stroke="#282057"/>
<rect x="55.5" y="42.5" width="6" height="5" rx="0.5" fill="white" stroke="#282057"/>
<rect x="7.5" y="42.5" width="6" height="5" rx="0.5" fill="white" stroke="#282057"/>
<rect x="19.5" y="42.5" width="6" height="5" rx="0.5" fill="white" stroke="#282057"/>
<rect x="31.5" y="42.5" width="6" height="5" rx="0.5" fill="white" stroke="#282057"/>
<rect x="43.5" y="42.5" width="6" height="5" rx="0.5" fill="white" stroke="#282057"/>
</svg>
