<svg width="65" height="65" viewBox="0 0 65 65" fill="none" xmlns="http://www.w3.org/2000/svg">
<rect width="65" height="65" fill="white"/>
<path d="M53.5056 59.4563C53.5058 59.4563 53.5053 59.4586 53.5034 59.4632C53.5045 59.4587 53.5054 59.4563 53.5056 59.4563ZM53.3933 59.3789C53.4403 59.4326 53.4683 59.4728 53.4845 59.5C53.4683 59.5272 53.4403 59.5674 53.3933 59.6211C53.2356 59.8016 52.9352 60.0472 52.427 60.3284C51.4115 60.8903 49.8426 61.4447 47.7752 61.9286C43.6642 62.8907 37.9094 63.5 31.5 63.5C25.0906 63.5 19.3358 62.8907 15.2248 61.9286C13.1574 61.4447 11.5885 60.8903 10.573 60.3284C10.0648 60.0472 9.76445 59.8016 9.60668 59.6211C9.55971 59.5674 9.53173 59.5272 9.51545 59.5C9.53173 59.4728 9.55971 59.4326 9.60668 59.3789C9.76445 59.1984 10.0648 58.9528 10.573 58.6716C11.5885 58.1097 13.1574 57.5553 15.2248 57.0714C19.3358 56.1093 25.0906 55.5 31.5 55.5C37.9094 55.5 43.6642 56.1093 47.7752 57.0714C49.8426 57.5553 51.4115 58.1097 52.427 58.6716C52.9352 58.9528 53.2356 59.1984 53.3933 59.3789ZM9.49442 59.4563C9.49462 59.4563 9.49554 59.4587 9.49657 59.4633C9.49474 59.4586 9.49422 59.4563 9.49442 59.4563ZM9.49442 59.5437C9.49422 59.5437 9.49474 59.5414 9.49657 59.5367C9.49554 59.5413 9.49462 59.5437 9.49442 59.5437ZM53.5034 59.5368C53.5053 59.5414 53.5058 59.5437 53.5056 59.5437C53.5054 59.5437 53.5045 59.5413 53.5034 59.5368Z" fill="white" stroke="#282057" stroke-width="3"/>
<path d="M45.5 19.5859C45.5 21.4535 44.6208 24.8907 43.1575 29.2067C41.7203 33.4459 39.7976 38.3179 37.8659 42.9428C35.9358 47.5638 34.0046 51.9194 32.5554 55.1209C32.1654 55.9824 31.8105 56.76 31.5 57.4364C31.1895 56.76 30.8346 55.9824 30.4446 55.1209C28.9954 51.9194 27.0642 47.5638 25.1341 42.9428C23.2024 38.3179 21.2797 33.4459 19.8425 29.2067C18.3792 24.8907 17.5 21.4535 17.5 19.5859C17.5 11.7987 23.7758 5.5 31.5 5.5C39.2242 5.5 45.5 11.7987 45.5 19.5859Z" fill="white" stroke="#282057" stroke-width="3"/>
<circle cx="31.5" cy="19.5" r="4" fill="white" stroke="#282057" stroke-width="3"/>
</svg>
