<svg width="65" height="66" viewBox="0 0 65 66" fill="none" xmlns="http://www.w3.org/2000/svg">
<rect width="65" height="65" fill="white"/>
<circle cx="32" cy="41" r="23.5" fill="white" stroke="#282057"/>
<circle cx="32" cy="41" r="21.2674" fill="white" stroke="#282057"/>
<circle cx="32" cy="41" r="10.1047" fill="white" stroke="#282057"/>
<circle cx="32" cy="41" r="7.87209" fill="#282057" stroke="#282057"/>
<mask id="path-6-inside-1" fill="white">
<path fill-rule="evenodd" clip-rule="evenodd" d="M61.3844 34.8059C63.4724 34.2055 65 32.2811 65 30C65 27.2386 62.7614 20 60 20C57.2386 20 55 27.2386 55 30C55 32.2811 56.5276 34.2055 58.6156 34.8059C57.6555 44.7202 57 61.3425 57 62.5C57 64.1569 58.3431 65.5 60 65.5C61.6569 65.5 63 64.1569 63 62.5C63 61.3425 62.3445 44.7202 61.3844 34.8059Z"/>
</mask>
<path fill-rule="evenodd" clip-rule="evenodd" d="M61.3844 34.8059C63.4724 34.2055 65 32.2811 65 30C65 27.2386 62.7614 20 60 20C57.2386 20 55 27.2386 55 30C55 32.2811 56.5276 34.2055 58.6156 34.8059C57.6555 44.7202 57 61.3425 57 62.5C57 64.1569 58.3431 65.5 60 65.5C61.6569 65.5 63 64.1569 63 62.5C63 61.3425 62.3445 44.7202 61.3844 34.8059Z" fill="white"/>
<path d="M61.3844 34.8059L61.1081 33.8448L60.3089 34.0746L60.3891 34.9023L61.3844 34.8059ZM58.6156 34.8059L59.6109 34.9023L59.6911 34.0746L58.8919 33.8448L58.6156 34.8059ZM64 30C64 31.8235 62.779 33.3643 61.1081 33.8448L61.6607 35.7669C64.1658 35.0466 66 32.7388 66 30H64ZM60 21C60.2399 21 60.6423 21.168 61.1763 21.8123C61.687 22.4285 62.1806 23.3205 62.6135 24.3516C63.4863 26.4302 64 28.7946 64 30H66C66 28.4439 65.3944 25.8084 64.4575 23.5773C63.9857 22.4536 63.4018 21.3633 62.7162 20.5361C62.0537 19.7368 61.1408 19 60 19V21ZM56 30C56 28.7946 56.5137 26.4302 57.3865 24.3516C57.8194 23.3205 58.313 22.4285 58.8237 21.8123C59.3577 21.168 59.7601 21 60 21V19C58.8592 19 57.9463 19.7368 57.2838 20.5361C56.5982 21.3633 56.0143 22.4536 55.5425 23.5773C54.6056 25.8084 54 28.4439 54 30H56ZM58.8919 33.8448C57.221 33.3643 56 31.8235 56 30H54C54 32.7388 55.8342 35.0466 58.3393 35.7669L58.8919 33.8448ZM58 62.5C58 61.3785 58.6536 44.7886 59.6109 34.9023L57.6203 34.7095C56.6575 44.6519 56 61.3065 56 62.5H58ZM60 64.5C58.8954 64.5 58 63.6046 58 62.5H56C56 64.7091 57.7909 66.5 60 66.5V64.5ZM62 62.5C62 63.6046 61.1046 64.5 60 64.5V66.5C62.2091 66.5 64 64.7091 64 62.5H62ZM60.3891 34.9023C61.3464 44.7886 62 61.3785 62 62.5H64C64 61.3065 63.3425 44.6519 62.3797 34.7095L60.3891 34.9023Z" fill="#282057" mask="url(#path-6-inside-1)"/>
<mask id="path-8-inside-2" fill="white">
<path fill-rule="evenodd" clip-rule="evenodd" d="M8.42511 31.3325C8.42539 31.321 8.42553 31.3095 8.42553 31.2979C8.42553 30.5223 7.79683 21 7.02128 21C6.36705 21 5.81732 27.7761 5.66134 30.3617H5.57271C5.41673 27.7761 4.867 21 4.21277 21C3.55854 21 3.00881 27.7761 2.85282 30.3617H2.7642C2.60822 27.7761 2.05848 21 1.40426 21C0.628706 21 0 30.5223 0 31.2979C0 31.3094 0.000140011 31.321 0.000418425 31.3325C0.000140131 31.3422 0 31.3519 0 31.3617L0 33.1064C0 33.6587 0.447715 34.1064 0.999999 34.1064H3.61307C2.59154 42.8785 1.87234 61.0184 1.87234 62.1915C1.87234 63.7426 3.12975 65 4.68085 65C6.23195 65 7.48936 63.7426 7.48936 62.1915C7.48936 61.0184 6.77016 42.8785 5.74864 34.1064H7.42553C7.97782 34.1064 8.42553 33.6587 8.42553 33.1064V31.3617C8.42553 31.3519 8.42539 31.3422 8.42511 31.3325Z"/>
</mask>
<path fill-rule="evenodd" clip-rule="evenodd" d="M8.42511 31.3325C8.42539 31.321 8.42553 31.3095 8.42553 31.2979C8.42553 30.5223 7.79683 21 7.02128 21C6.36705 21 5.81732 27.7761 5.66134 30.3617H5.57271C5.41673 27.7761 4.867 21 4.21277 21C3.55854 21 3.00881 27.7761 2.85282 30.3617H2.7642C2.60822 27.7761 2.05848 21 1.40426 21C0.628706 21 0 30.5223 0 31.2979C0 31.3094 0.000140011 31.321 0.000418425 31.3325C0.000140131 31.3422 0 31.3519 0 31.3617L0 33.1064C0 33.6587 0.447715 34.1064 0.999999 34.1064H3.61307C2.59154 42.8785 1.87234 61.0184 1.87234 62.1915C1.87234 63.7426 3.12975 65 4.68085 65C6.23195 65 7.48936 63.7426 7.48936 62.1915C7.48936 61.0184 6.77016 42.8785 5.74864 34.1064H7.42553C7.97782 34.1064 8.42553 33.6587 8.42553 33.1064V31.3617C8.42553 31.3519 8.42539 31.3422 8.42511 31.3325Z" fill="white"/>
<path d="M8.42511 31.3325L7.42541 31.3083L7.42477 31.3347L7.42552 31.3612L8.42511 31.3325ZM5.66134 30.3617V31.3617H6.60283L6.65952 30.4219L5.66134 30.3617ZM5.57271 30.3617L4.57453 30.4219L4.63122 31.3617H5.57271V30.3617ZM2.85282 30.3617V31.3617H3.79431L3.85101 30.4219L2.85282 30.3617ZM2.7642 30.3617L1.76601 30.4219L1.82271 31.3617H2.7642V30.3617ZM0.000418425 31.3325L1.00001 31.3612L1.00077 31.3347L1.00013 31.3083L0.000418425 31.3325ZM3.61307 34.1064L4.60635 34.2221L4.73627 33.1064H3.61307V34.1064ZM5.74864 34.1064V33.1064H4.62543L4.75535 34.2221L5.74864 34.1064ZM7.42553 31.2979C7.42553 31.3014 7.42549 31.3049 7.42541 31.3083L9.42482 31.3568C9.4253 31.3372 9.42553 31.3175 9.42553 31.2979H7.42553ZM7.02128 22C6.77495 22 6.59302 21.9023 6.49162 21.8259C6.39703 21.7546 6.34887 21.6857 6.33602 21.6666C6.312 21.631 6.32492 21.6393 6.36015 21.7402C6.42594 21.9287 6.50319 22.2436 6.58468 22.6825C6.74508 23.5464 6.89312 24.7285 7.01946 25.9601C7.2733 28.435 7.42553 30.9654 7.42553 31.2979H9.42553C9.42553 30.8548 9.26341 28.2363 9.00902 25.7561C8.88123 24.5102 8.72668 23.2632 8.55107 22.3174C8.46457 21.8515 8.36546 21.4164 8.24842 21.0811C8.19223 20.9201 8.11213 20.7231 7.99369 20.5476C7.91262 20.4275 7.60362 20 7.02128 20V22ZM6.65952 30.4219C6.73683 29.1404 6.91185 26.8204 7.14754 24.8288C7.26594 23.8282 7.39649 22.9384 7.53217 22.3103C7.60162 21.9889 7.66275 21.7828 7.70681 21.6752C7.73099 21.6162 7.72806 21.642 7.68234 21.6995C7.65481 21.7341 7.43834 22 7.02128 22V20C6.52244 20 6.22501 20.3189 6.11747 20.454C5.99175 20.612 5.90978 20.7859 5.856 20.9172C5.74416 21.1903 5.6538 21.5338 5.57727 21.888C5.421 22.6113 5.2817 23.5771 5.1614 24.5937C4.91966 26.6365 4.74182 28.9975 4.66315 30.3015L6.65952 30.4219ZM5.57271 31.3617H5.66134V29.3617H5.57271V31.3617ZM4.21277 22C3.79571 22 3.57923 21.7341 3.55171 21.6995C3.50599 21.642 3.50306 21.6162 3.52724 21.6752C3.57129 21.7828 3.63243 21.9889 3.70188 22.3103C3.83756 22.9384 3.9681 23.8282 4.08651 24.8288C4.3222 26.8204 4.49721 29.1404 4.57453 30.4219L6.5709 30.3015C6.49223 28.9975 6.31439 26.6365 6.07265 24.5937C5.95235 23.5771 5.81304 22.6113 5.65677 21.888C5.58025 21.5338 5.48988 21.1903 5.37804 20.9172C5.32427 20.7859 5.24229 20.612 5.11658 20.454C5.00904 20.3189 4.71161 20 4.21277 20V22ZM3.85101 30.4219C3.92832 29.1404 4.10334 26.8204 4.33903 24.8288C4.45743 23.8282 4.58798 22.9384 4.72366 22.3103C4.79311 21.9889 4.85424 21.7828 4.8983 21.6752C4.92248 21.6162 4.91954 21.642 4.87383 21.6995C4.8463 21.7341 4.62983 22 4.21277 22V20C3.71393 20 3.41649 20.3189 3.30896 20.454C3.18324 20.612 3.10127 20.7859 3.04749 20.9172C2.93565 21.1903 2.84528 21.5338 2.76876 21.888C2.61249 22.6113 2.47319 23.5771 2.35288 24.5937C2.11115 26.6365 1.93331 28.9975 1.85464 30.3015L3.85101 30.4219ZM2.7642 31.3617H2.85282V29.3617H2.7642V31.3617ZM1.40426 22C0.987196 22 0.770721 21.7341 0.743192 21.6995C0.697479 21.642 0.694548 21.6162 0.718723 21.6752C0.762781 21.7828 0.823912 21.9889 0.893365 22.3103C1.02905 22.9384 1.15959 23.8282 1.278 24.8288C1.51368 26.8204 1.6887 29.1404 1.76601 30.4219L3.76238 30.3015C3.68371 28.9975 3.50587 26.6365 3.26414 24.5937C3.14384 23.5771 3.00453 22.6113 2.84826 21.888C2.77174 21.5338 2.68137 21.1903 2.56953 20.9172C2.51576 20.7859 2.43378 20.612 2.30806 20.454C2.20053 20.3189 1.90309 20 1.40426 20V22ZM1 31.2979C1 30.9654 1.15223 28.435 1.40608 25.9601C1.53241 24.7285 1.68045 23.5464 1.84085 22.6825C1.92235 22.2436 1.9996 21.9287 2.06539 21.7402C2.10061 21.6393 2.11354 21.631 2.08951 21.6666C2.07667 21.6857 2.02851 21.7546 1.93391 21.8259C1.83251 21.9023 1.65059 22 1.40426 22V20C0.821918 20 0.512911 20.4275 0.431842 20.5476C0.313406 20.7231 0.233302 20.9201 0.177112 21.0811C0.0600716 21.4164 -0.0390313 21.8515 -0.12554 22.3174C-0.301145 23.2632 -0.455696 24.5102 -0.583484 25.7561C-0.83788 28.2363 -1 30.8548 -1 31.2979H1ZM1.00013 31.3083C1.00004 31.3049 1 31.3014 1 31.2979H-1C-1 31.3175 -0.999762 31.3371 -0.999289 31.3567L1.00013 31.3083ZM1 31.3617C1 31.3615 1 31.3613 1.00001 31.3612L-0.99917 31.3038C-0.999723 31.3231 -1 31.3424 -1 31.3617H1ZM1 33.1064L1 31.3617H-1V33.1064H1ZM0.999999 33.1064H1H-1C-1 34.211 -0.10457 35.1064 0.999999 35.1064L0.999999 33.1064ZM3.61307 33.1064H0.999999L0.999999 35.1064H3.61307V33.1064ZM2.87234 62.1915C2.87234 61.0504 3.59001 42.9497 4.60635 34.2221L2.61978 33.9907C1.59307 42.8074 0.87234 60.9864 0.87234 62.1915H2.87234ZM4.68085 64C3.68204 64 2.87234 63.1903 2.87234 62.1915H0.87234C0.87234 64.2949 2.57747 66 4.68085 66V64ZM6.48936 62.1915C6.48936 63.1903 5.67966 64 4.68085 64V66C6.78423 66 8.48936 64.2949 8.48936 62.1915H6.48936ZM4.75535 34.2221C5.77169 42.9497 6.48936 61.0504 6.48936 62.1915H8.48936C8.48936 60.9864 7.76863 42.8074 6.74192 33.9907L4.75535 34.2221ZM7.42553 33.1064H5.74864V35.1064H7.42553V33.1064ZM7.42553 33.1064L7.42553 33.1064V35.1064C8.5301 35.1064 9.42553 34.211 9.42553 33.1064H7.42553ZM7.42553 31.3617V33.1064H9.42553V31.3617H7.42553ZM7.42552 31.3612L7.42553 31.3617H9.42553C9.42553 31.3424 9.42525 31.3231 9.42471 31.3039L7.42552 31.3612Z" fill="#282057" mask="url(#path-8-inside-2)"/>
</svg>
