<svg width="65" height="65" viewBox="0 0 65 65" fill="none" xmlns="http://www.w3.org/2000/svg">
<rect width="65" height="65" fill="white"/>
<rect x="33.5" y="24.5" width="20" height="39" rx="1.5" stroke="#282057" stroke-width="3"/>
<rect x="41" y="29" width="2" height="2" fill="#282057"/>
<rect x="45" y="29" width="2" height="2" fill="#282057"/>
<rect x="49" y="29" width="2" height="2" fill="#282057"/>
<rect x="41" y="33" width="2" height="2" fill="#282057"/>
<rect x="45" y="33" width="2" height="2" fill="#282057"/>
<rect x="49" y="33" width="2" height="2" fill="#282057"/>
<rect x="41" y="37" width="2" height="2" fill="#282057"/>
<rect x="45" y="37" width="2" height="2" fill="#282057"/>
<rect x="49" y="37" width="2" height="2" fill="#282057"/>
<rect x="41" y="41" width="2" height="2" fill="#282057"/>
<rect x="45" y="41" width="2" height="2" fill="#282057"/>
<rect x="49" y="41" width="2" height="2" fill="#282057"/>
<rect x="41" y="45" width="2" height="2" fill="#282057"/>
<rect x="45" y="45" width="2" height="2" fill="#282057"/>
<rect x="49" y="45" width="2" height="2" fill="#282057"/>
<rect x="41" y="49" width="2" height="2" fill="#282057"/>
<rect x="45" y="49" width="2" height="2" fill="#282057"/>
<rect x="49" y="49" width="2" height="2" fill="#282057"/>
<rect x="41" y="53" width="2" height="2" fill="#282057"/>
<rect x="45" y="53" width="2" height="2" fill="#282057"/>
<rect x="49" y="53" width="2" height="2" fill="#282057"/>
<rect x="41" y="57" width="2" height="2" fill="#282057"/>
<rect x="45" y="57" width="2" height="2" fill="#282057"/>
<rect x="49" y="57" width="2" height="2" fill="#282057"/>
<rect x="13.5" y="12.5" width="27" height="51" rx="1.5" fill="#FFFCFC" stroke="#282057" stroke-width="3"/>
<rect x="26" y="19" width="4" height="4" fill="#282057"/>
<rect x="34" y="19" width="4" height="4" fill="#282057"/>
<rect x="18" y="19" width="4" height="4" fill="#282057"/>
<rect x="26" y="35" width="4" height="4" fill="#282057"/>
<rect x="34" y="35" width="4" height="4" fill="#282057"/>
<rect x="18" y="35" width="4" height="4" fill="#282057"/>
<rect x="26" y="51" width="4" height="4" fill="#282057"/>
<rect x="34" y="51" width="4" height="4" fill="#282057"/>
<rect x="18" y="51" width="4" height="4" fill="#282057"/>
<rect x="26" y="27" width="4" height="4" fill="#282057"/>
<rect x="34" y="27" width="4" height="4" fill="#282057"/>
<rect x="18" y="27" width="4" height="4" fill="#282057"/>
<rect x="26" y="43" width="4" height="4" fill="#282057"/>
<rect x="34" y="43" width="4" height="4" fill="#282057"/>
<rect x="18" y="43" width="4" height="4" fill="#282057"/>
</svg>
