<svg width="65" height="65" viewBox="0 0 65 65" fill="none" xmlns="http://www.w3.org/2000/svg">
<rect width="65" height="65" fill="white"/>
<rect x="1.5" y="11.5" width="62" height="41" rx="1.5" fill="white" stroke="#282057" stroke-width="3"/>
<path d="M19 63H46" stroke="#282057" stroke-width="3" stroke-linecap="round"/>
<line x1="33.5" y1="52" x2="33.5" y2="62" stroke="#282057" stroke-width="3"/>
<path d="M60 16.0112L60.449 17.6727H61.9021L60.7265 18.6995L61.1756 20.361L60 19.3342L58.8244 20.361L59.2735 18.6995L58.0979 17.6727H59.551L60 16.0112Z" fill="#282057"/>
<path d="M59 13.6067L59.2245 14.4375H59.9511L59.3633 14.9509L59.5878 15.7816L59 15.2682L58.4122 15.7816L58.6367 14.9509L58.0489 14.4375H58.7755L59 13.6067Z" fill="#282057"/>
<path d="M57 16.0112L57.2245 16.842H57.9511L57.3633 17.3554L57.5878 18.1861L57 17.6727L56.4122 18.1861L56.6367 17.3554L56.0489 16.842H56.7755L57 16.0112Z" fill="#282057"/>
</svg>
