<svg width="65" height="65" viewBox="0 0 65 65" fill="none" xmlns="http://www.w3.org/2000/svg">
<rect width="65" height="65" fill="white"/>
<path d="M24 48L33 39L42 48" stroke="#282057" stroke-width="3" stroke-linecap="round"/>
<path d="M32.9926 39.7494L32.9926 56.2359" stroke="#282057" stroke-width="3" stroke-linecap="round"/>
<path d="M17.7509 52.0038C12.3656 52.0038 8 47.6381 8 42.2528C8 36.8675 12.3656 32.5019 17.7509 32.5019" stroke="#282057" stroke-width="3"/>
<path d="M17.7509 52.0038C12.3656 52.0038 8 47.6381 8 42.2528C8 36.8675 12.3656 32.5019 17.7509 32.5019" stroke="#282057" stroke-width="3"/>
<path d="M41.2712 30.0494C41.6133 24.5448 38.3198 19.25 32.8677 17.2943C26.2559 14.9226 18.9733 18.3599 16.6016 24.9717C15.5942 27.7803 15.6349 30.7098 16.5219 33.3326" stroke="#282057" stroke-width="3"/>
<path d="M41.2712 30.0494C41.6133 24.5448 38.3198 19.25 32.8677 17.2943C26.2559 14.9226 18.9733 18.3599 16.6016 24.9717C15.5942 27.7803 15.6349 30.7098 16.5219 33.3326" stroke="#282057" stroke-width="3"/>
<path d="M47.0031 53.785C54.9631 53.9037 61.5122 47.5472 61.631 39.5872C61.7498 31.6272 55.3932 25.078 47.4332 24.9593C45.3176 24.9277 43.3016 25.3536 41.4795 26.1454" stroke="#282057" stroke-width="3"/>
<path d="M47.0031 53.785C54.9631 53.9037 61.5122 47.5472 61.631 39.5872C61.7498 31.6272 55.3932 25.078 47.4332 24.9593C45.3176 24.9277 43.3016 25.3536 41.4795 26.1454" stroke="#282057" stroke-width="3"/>
</svg>
