<svg width="66" height="65" viewBox="0 0 66 65" fill="none" xmlns="http://www.w3.org/2000/svg">
<rect width="65" height="65" fill="white"/>
<path d="M8.19231 38.7204C13.4788 30.7311 22.6166 26.4615 33.0033 26.4615C42.8764 26.4615 51.6211 31.2929 57.0022 38.7204" stroke="#282057" stroke-width="3"/>
<path d="M1.42308 33.2308C8.20481 23.3046 19.9272 18 33.2516 18C45.9173 18 57.1354 24.0026 64.0385 33.2308" stroke="#282057" stroke-width="3"/>
<path d="M14.9615 43.3846C18.8106 37.8701 25.4639 34.9231 33.0264 34.9231C40.215 34.9231 46.582 38.2579 50.5 43.3846" stroke="#282057" stroke-width="3"/>
<path d="M21.7308 48.4615C24.1135 45.1528 28.2322 43.3846 32.9138 43.3846C37.3639 43.3846 41.3054 45.3855 43.7308 48.4615" stroke="#282057" stroke-width="3"/>
<circle cx="32.7308" cy="56.0769" r="5.92308" fill="#282057"/>
</svg>
