<svg width="65" height="53" viewBox="0 0 65 53" fill="none" xmlns="http://www.w3.org/2000/svg">
<rect x="1.5" y="1.5" width="62" height="25" rx="3.5" fill="white" stroke="#282057" stroke-width="3"/>
<line x1="3" y1="19.5" x2="62" y2="19.5" stroke="#282057"/>
<line x1="3" y1="21.5" x2="62" y2="21.5" stroke="#282057"/>
<line x1="3" y1="23.5" x2="62" y2="23.5" stroke="#282057"/>
<line x1="28" y1="13" x2="38" y2="13" stroke="#282057" stroke-width="2" stroke-linecap="round"/>
<path d="M26.193 31C21.3596 32.6667 19.893 37 26.193 41.5C29.6929 44 31.0263 50.8333 26.193 52.5" stroke="#282057"/>
<path d="M33.193 31C28.3596 32.6667 26.893 37 33.193 41.5C36.6929 44 38.0263 50.8333 33.193 52.5" stroke="#282057"/>
<path d="M41.193 31C36.3596 32.6667 34.893 37 41.193 41.5C44.6929 44 46.0263 50.8333 41.193 52.5" stroke="#282057"/>
</svg>
