<svg width="51" height="54" viewBox="0 0 51 54" fill="none" xmlns="http://www.w3.org/2000/svg">
<rect x="17.6925" y="22.2136" width="20.5594" height="16.2634" rx="5.5" transform="rotate(-90.5 17.6925 22.2136)" stroke="#282057" stroke-width="3"/>
<path d="M33.5 22.5H40C45.2467 22.5 49.5 26.7533 49.5 32V45C49.5 46.3807 48.3807 47.5 47 47.5H33.5V22.5Z" stroke="#282057" stroke-width="3"/>
<path d="M17.5 22.5H11C5.75329 22.5 1.5 26.7533 1.5 32V45C1.5 46.3807 2.61929 47.5 4 47.5H17.5V22.5Z" stroke="#282057" stroke-width="3"/>
<path d="M7.5 22C7.5 13.4396 14.4396 6.5 23 6.5H28C36.5604 6.5 43.5 13.4396 43.5 22V46C43.5 49.5899 40.5899 52.5 37 52.5H14C10.4101 52.5 7.5 49.5899 7.5 46V22Z" fill="#FFFBFB" stroke="#282057" stroke-width="3"/>
<line x1="10" y1="37.5" x2="16" y2="37.5" stroke="#282057"/>
<line x1="18" y1="37.5" x2="20" y2="37.5" stroke="#282057"/>
<line x1="23" y1="37.5" x2="40" y2="37.5" stroke="#282057"/>
<circle cx="25.5" cy="22.5" r="1.5" fill="#282057"/>
<path d="M7.5 19.16C7.5 12.7204 12.7204 7.5 19.16 7.5H30.04C36.9215 7.5 42.5 13.0785 42.5 19.96V20.68C42.5 23.342 40.342 25.5 37.68 25.5H13.84C10.3385 25.5 7.5 22.6615 7.5 19.16Z" stroke="#282057"/>
<path d="M38 47L38.449 48.382H39.9021L38.7265 49.2361L39.1756 50.618L38 49.7639L36.8244 50.618L37.2735 49.2361L36.0979 48.382H37.551L38 47Z" fill="#282057"/>
<path d="M37 45L37.2245 45.691H37.9511L37.3633 46.118L37.5878 46.809L37 46.382L36.4122 46.809L36.6367 46.118L36.0489 45.691H36.7755L37 45Z" fill="#282057"/>
<path d="M35 47L35.2245 47.691H35.9511L35.3633 48.118L35.5878 48.809L35 48.382L34.4122 48.809L34.6367 48.118L34.0489 47.691H34.7755L35 47Z" fill="#282057"/>
</svg>
