<svg width="65" height="65" viewBox="0 0 65 65" fill="none" xmlns="http://www.w3.org/2000/svg">
<rect width="65" height="65" fill="white"/>
<rect x="16.5893" y="13.1071" width="32.9821" height="36.4643" rx="8.5" fill="white" stroke="#282057" stroke-width="3"/>
<path d="M1.5 36.3393C1.5 34.4063 3.067 32.8393 5 32.8393H60C61.933 32.8393 63.5 34.4063 63.5 36.3393V54.2143H1.5V36.3393Z" fill="white" stroke="#282057" stroke-width="3"/>
<line x1="1.5" y1="54.8929" x2="1.5" y2="63.5" stroke="#282057" stroke-width="3" stroke-linecap="round"/>
<line x1="63.0179" y1="54.8929" x2="63.0179" y2="63.5" stroke="#282057" stroke-width="3" stroke-linecap="round"/>
<line x1="16.5" y1="54.5" x2="16.5" y2="57.5" stroke="#282057" stroke-width="3" stroke-linecap="round"/>
<line x1="49.5" y1="57.5" x2="49.5" y2="54.5" stroke="#282057" stroke-width="3" stroke-linecap="round"/>
<rect x="19.5" y="27.5" width="12" height="4" rx="1.5" fill="white"/>
<rect x="19.5" y="27.5" width="12" height="4" rx="1.5" stroke="#282057"/>
<rect x="19.5" y="27.5" width="12" height="4" rx="1.5" stroke="#282057"/>
<rect x="19.5" y="27.5" width="12" height="4" rx="1.5" stroke="#282057"/>
<rect x="19.5" y="27.5" width="12" height="4" rx="1.5" stroke="#282057"/>
<rect x="34.5" y="27.5" width="12" height="4" rx="1.5" fill="white"/>
<rect x="34.5" y="27.5" width="12" height="4" rx="1.5" stroke="#282057"/>
<rect x="34.5" y="27.5" width="12" height="4" rx="1.5" stroke="#282057"/>
<rect x="34.5" y="27.5" width="12" height="4" rx="1.5" stroke="#282057"/>
<rect x="34.5" y="27.5" width="12" height="4" rx="1.5" stroke="#282057"/>
</svg>
