<svg width="47" height="61" viewBox="0 0 47 61" fill="none" xmlns="http://www.w3.org/2000/svg">
<path d="M45.5056 55.4563C45.5058 55.4563 45.5053 55.4586 45.5034 55.4632C45.5045 55.4587 45.5054 55.4563 45.5056 55.4563ZM45.3933 55.3789C45.4403 55.4326 45.4683 55.4728 45.4845 55.5C45.4683 55.5272 45.4403 55.5674 45.3933 55.6211C45.2356 55.8016 44.9352 56.0472 44.427 56.3284C43.4115 56.8903 41.8426 57.4447 39.7752 57.9286C35.6642 58.8907 29.9094 59.5 23.5 59.5C17.0906 59.5 11.3358 58.8907 7.22482 57.9286C5.15739 57.4447 3.58852 56.8903 2.57299 56.3284C2.06475 56.0472 1.76445 55.8016 1.60668 55.6211C1.55971 55.5674 1.53173 55.5272 1.51545 55.5C1.53173 55.4728 1.55971 55.4326 1.60668 55.3789C1.76445 55.1984 2.06475 54.9528 2.57299 54.6716C3.58852 54.1097 5.15739 53.5553 7.22482 53.0714C11.3358 52.1093 17.0906 51.5 23.5 51.5C29.9094 51.5 35.6642 52.1093 39.7752 53.0714C41.8426 53.5553 43.4115 54.1097 44.427 54.6716C44.9352 54.9528 45.2356 55.1984 45.3933 55.3789ZM1.49442 55.4563C1.49462 55.4563 1.49554 55.4587 1.49657 55.4633C1.49474 55.4586 1.49422 55.4563 1.49442 55.4563ZM1.49442 55.5437C1.49422 55.5437 1.49474 55.5414 1.49657 55.5367C1.49554 55.5413 1.49462 55.5437 1.49442 55.5437ZM45.5034 55.5368C45.5053 55.5414 45.5058 55.5437 45.5056 55.5437C45.5054 55.5437 45.5045 55.5413 45.5034 55.5368Z" fill="white" stroke="#282057" stroke-width="3"/>
<path d="M37.5 15.5859C37.5 17.4535 36.6208 20.8907 35.1575 25.2067C33.7203 29.4459 31.7976 34.3179 29.8659 38.9428C27.9358 43.5638 26.0046 47.9194 24.5554 51.1209C24.1654 51.9824 23.8105 52.76 23.5 53.4364C23.1895 52.76 22.8346 51.9824 22.4446 51.1209C20.9954 47.9194 19.0642 43.5638 17.1341 38.9428C15.2024 34.3179 13.2797 29.4459 11.8425 25.2067C10.3792 20.8907 9.5 17.4535 9.5 15.5859C9.5 7.79866 15.7758 1.5 23.5 1.5C31.2242 1.5 37.5 7.79866 37.5 15.5859Z" fill="white" stroke="#282057" stroke-width="3"/>
<circle cx="23.5" cy="15.5" r="4" fill="white" stroke="#282057" stroke-width="3"/>
</svg>
