<svg width="65" height="49" viewBox="0 0 65 49" fill="none" xmlns="http://www.w3.org/2000/svg">
<circle cx="32" cy="24" r="23.5" fill="white" stroke="#282057"/>
<circle cx="32" cy="24" r="21.2674" fill="white" stroke="#282057"/>
<circle cx="32" cy="24" r="10.1047" fill="white" stroke="#282057"/>
<circle cx="32" cy="24" r="7.87209" fill="#282057" stroke="#282057"/>
<mask id="path-5-inside-1" fill="white">
<path fill-rule="evenodd" clip-rule="evenodd" d="M61.3844 17.8059C63.4724 17.2055 65 15.2811 65 13C65 10.2386 62.7614 3 60 3C57.2386 3 55 10.2386 55 13C55 15.2811 56.5276 17.2055 58.6156 17.8059C57.6555 27.7202 57 44.3425 57 45.5C57 47.1569 58.3431 48.5 60 48.5C61.6569 48.5 63 47.1569 63 45.5C63 44.3425 62.3445 27.7202 61.3844 17.8059Z"/>
</mask>
<path fill-rule="evenodd" clip-rule="evenodd" d="M61.3844 17.8059C63.4724 17.2055 65 15.2811 65 13C65 10.2386 62.7614 3 60 3C57.2386 3 55 10.2386 55 13C55 15.2811 56.5276 17.2055 58.6156 17.8059C57.6555 27.7202 57 44.3425 57 45.5C57 47.1569 58.3431 48.5 60 48.5C61.6569 48.5 63 47.1569 63 45.5C63 44.3425 62.3445 27.7202 61.3844 17.8059Z" fill="white"/>
<path d="M61.3844 17.8059L61.1081 16.8448L60.3089 17.0746L60.3891 17.9023L61.3844 17.8059ZM58.6156 17.8059L59.6109 17.9023L59.6911 17.0746L58.8919 16.8448L58.6156 17.8059ZM64 13C64 14.8235 62.779 16.3643 61.1081 16.8448L61.6607 18.7669C64.1658 18.0466 66 15.7388 66 13H64ZM60 4C60.2399 4 60.6423 4.16803 61.1763 4.81229C61.687 5.42854 62.1806 6.32051 62.6135 7.35162C63.4863 9.43018 64 11.7946 64 13H66C66 11.4439 65.3944 8.80839 64.4575 6.57731C63.9857 5.4536 63.4018 4.36334 62.7162 3.53606C62.0537 2.73679 61.1408 2 60 2V4ZM56 13C56 11.7946 56.5137 9.43018 57.3865 7.35162C57.8194 6.32051 58.313 5.42854 58.8237 4.81229C59.3577 4.16803 59.7601 4 60 4V2C58.8592 2 57.9463 2.73679 57.2838 3.53606C56.5982 4.36334 56.0143 5.4536 55.5425 6.57731C54.6056 8.80839 54 11.4439 54 13H56ZM58.8919 16.8448C57.221 16.3643 56 14.8235 56 13H54C54 15.7388 55.8342 18.0466 58.3393 18.7669L58.8919 16.8448ZM58 45.5C58 44.3785 58.6536 27.7886 59.6109 17.9023L57.6203 17.7095C56.6575 27.6519 56 44.3065 56 45.5H58ZM60 47.5C58.8954 47.5 58 46.6046 58 45.5H56C56 47.7091 57.7909 49.5 60 49.5V47.5ZM62 45.5C62 46.6046 61.1046 47.5 60 47.5V49.5C62.2091 49.5 64 47.7091 64 45.5H62ZM60.3891 17.9023C61.3464 27.7886 62 44.3785 62 45.5H64C64 44.3065 63.3425 27.6519 62.3797 17.7095L60.3891 17.9023Z" fill="#282057" mask="url(#path-5-inside-1)"/>
<mask id="path-7-inside-2" fill="white">
<path fill-rule="evenodd" clip-rule="evenodd" d="M8.42511 14.3325C8.42539 14.321 8.42553 14.3095 8.42553 14.2979C8.42553 13.5223 7.79683 4 7.02128 4C6.36705 4 5.81732 10.7761 5.66134 13.3617H5.57271C5.41673 10.7761 4.867 4 4.21277 4C3.55854 4 3.00881 10.7761 2.85282 13.3617H2.7642C2.60822 10.7761 2.05848 4 1.40426 4C0.628706 4 0 13.5223 0 14.2979C0 14.3094 0.000140011 14.321 0.000418425 14.3325C0.000140131 14.3422 0 14.3519 0 14.3617L0 16.1064C0 16.6587 0.447715 17.1064 0.999999 17.1064H3.61307C2.59154 25.8785 1.87234 44.0184 1.87234 45.1915C1.87234 46.7426 3.12975 48 4.68085 48C6.23195 48 7.48936 46.7426 7.48936 45.1915C7.48936 44.0184 6.77016 25.8785 5.74864 17.1064H7.42553C7.97782 17.1064 8.42553 16.6587 8.42553 16.1064V14.3617C8.42553 14.3519 8.42539 14.3422 8.42511 14.3325Z"/>
</mask>
<path fill-rule="evenodd" clip-rule="evenodd" d="M8.42511 14.3325C8.42539 14.321 8.42553 14.3095 8.42553 14.2979C8.42553 13.5223 7.79683 4 7.02128 4C6.36705 4 5.81732 10.7761 5.66134 13.3617H5.57271C5.41673 10.7761 4.867 4 4.21277 4C3.55854 4 3.00881 10.7761 2.85282 13.3617H2.7642C2.60822 10.7761 2.05848 4 1.40426 4C0.628706 4 0 13.5223 0 14.2979C0 14.3094 0.000140011 14.321 0.000418425 14.3325C0.000140131 14.3422 0 14.3519 0 14.3617L0 16.1064C0 16.6587 0.447715 17.1064 0.999999 17.1064H3.61307C2.59154 25.8785 1.87234 44.0184 1.87234 45.1915C1.87234 46.7426 3.12975 48 4.68085 48C6.23195 48 7.48936 46.7426 7.48936 45.1915C7.48936 44.0184 6.77016 25.8785 5.74864 17.1064H7.42553C7.97782 17.1064 8.42553 16.6587 8.42553 16.1064V14.3617C8.42553 14.3519 8.42539 14.3422 8.42511 14.3325Z" fill="white"/>
<path d="M8.42511 14.3325L7.42541 14.3083L7.42477 14.3347L7.42552 14.3612L8.42511 14.3325ZM5.66134 13.3617V14.3617H6.60283L6.65952 13.4219L5.66134 13.3617ZM5.57271 13.3617L4.57453 13.4219L4.63122 14.3617H5.57271V13.3617ZM2.85282 13.3617V14.3617H3.79431L3.85101 13.4219L2.85282 13.3617ZM2.7642 13.3617L1.76601 13.4219L1.82271 14.3617H2.7642V13.3617ZM0.000418425 14.3325L1.00001 14.3612L1.00077 14.3347L1.00013 14.3083L0.000418425 14.3325ZM3.61307 17.1064L4.60635 17.2221L4.73627 16.1064H3.61307V17.1064ZM5.74864 17.1064V16.1064H4.62543L4.75535 17.2221L5.74864 17.1064ZM7.42553 14.2979C7.42553 14.3014 7.42549 14.3049 7.42541 14.3083L9.42482 14.3568C9.4253 14.3372 9.42553 14.3175 9.42553 14.2979H7.42553ZM7.02128 5C6.77495 5 6.59302 4.90233 6.49162 4.8259C6.39703 4.7546 6.34887 4.68565 6.33602 4.66662C6.312 4.63103 6.32492 4.63932 6.36015 4.74023C6.42594 4.9287 6.50319 5.24362 6.58468 5.68253C6.74508 6.54643 6.89312 7.72847 7.01946 8.96014C7.2733 11.435 7.42553 13.9654 7.42553 14.2979H9.42553C9.42553 13.8548 9.26341 11.2363 9.00902 8.75607C8.88123 7.51022 8.72668 6.26321 8.55107 5.31743C8.46457 4.8515 8.36546 4.41643 8.24842 4.08112C8.19223 3.92015 8.11213 3.72309 7.99369 3.54764C7.91262 3.42754 7.60362 3 7.02128 3V5ZM6.65952 13.4219C6.73683 12.1404 6.91185 9.82045 7.14754 7.82877C7.26594 6.82818 7.39649 5.93836 7.53217 5.31034C7.60162 4.98888 7.66275 4.78277 7.70681 4.67519C7.73099 4.61616 7.72806 4.64203 7.68234 4.69946C7.65481 4.73405 7.43834 5 7.02128 5V3C6.52244 3 6.22501 3.31889 6.11747 3.454C5.99175 3.61196 5.90978 3.78593 5.856 3.91723C5.74416 4.19032 5.6538 4.5338 5.57727 4.88799C5.421 5.6113 5.2817 6.57711 5.1614 7.59374C4.91966 9.63653 4.74182 11.9975 4.66315 13.3015L6.65952 13.4219ZM5.57271 14.3617H5.66134V12.3617H5.57271V14.3617ZM4.21277 5C3.79571 5 3.57923 4.73405 3.55171 4.69946C3.50599 4.64203 3.50306 4.61616 3.52724 4.67519C3.57129 4.78277 3.63243 4.98888 3.70188 5.31034C3.83756 5.93836 3.9681 6.82818 4.08651 7.82877C4.3222 9.82045 4.49721 12.1404 4.57453 13.4219L6.5709 13.3015C6.49223 11.9975 6.31439 9.63653 6.07265 7.59374C5.95235 6.57711 5.81304 5.6113 5.65677 4.88799C5.58025 4.5338 5.48988 4.19032 5.37804 3.91723C5.32427 3.78593 5.24229 3.61196 5.11658 3.454C5.00904 3.31889 4.71161 3 4.21277 3V5ZM3.85101 13.4219C3.92832 12.1404 4.10334 9.82045 4.33903 7.82877C4.45743 6.82818 4.58798 5.93836 4.72366 5.31034C4.79311 4.98888 4.85424 4.78277 4.8983 4.67519C4.92248 4.61616 4.91954 4.64203 4.87383 4.69946C4.8463 4.73405 4.62983 5 4.21277 5V3C3.71393 3 3.41649 3.31889 3.30896 3.454C3.18324 3.61196 3.10127 3.78593 3.04749 3.91723C2.93565 4.19032 2.84528 4.5338 2.76876 4.88799C2.61249 5.6113 2.47319 6.57711 2.35288 7.59374C2.11115 9.63653 1.93331 11.9975 1.85464 13.3015L3.85101 13.4219ZM2.7642 14.3617H2.85282V12.3617H2.7642V14.3617ZM1.40426 5C0.987196 5 0.770721 4.73405 0.743192 4.69946C0.697479 4.64203 0.694548 4.61616 0.718723 4.67519C0.762781 4.78277 0.823912 4.98888 0.893365 5.31034C1.02905 5.93836 1.15959 6.82818 1.278 7.82877C1.51368 9.82045 1.6887 12.1404 1.76601 13.4219L3.76238 13.3015C3.68371 11.9975 3.50587 9.63653 3.26414 7.59374C3.14384 6.57711 3.00453 5.6113 2.84826 4.88799C2.77174 4.5338 2.68137 4.19032 2.56953 3.91723C2.51576 3.78593 2.43378 3.61196 2.30806 3.454C2.20053 3.31889 1.90309 3 1.40426 3V5ZM1 14.2979C1 13.9654 1.15223 11.435 1.40608 8.96014C1.53241 7.72847 1.68045 6.54643 1.84085 5.68253C1.92235 5.24362 1.9996 4.9287 2.06539 4.74023C2.10061 4.63932 2.11354 4.63103 2.08951 4.66662C2.07667 4.68565 2.02851 4.7546 1.93391 4.8259C1.83251 4.90233 1.65059 5 1.40426 5V3C0.821918 3 0.512911 3.42754 0.431842 3.54764C0.313406 3.72309 0.233302 3.92015 0.177112 4.08112C0.0600716 4.41643 -0.0390313 4.8515 -0.12554 5.31743C-0.301145 6.26321 -0.455696 7.51022 -0.583484 8.75607C-0.83788 11.2363 -1 13.8548 -1 14.2979H1ZM1.00013 14.3083C1.00004 14.3049 1 14.3014 1 14.2979H-1C-1 14.3175 -0.999762 14.3371 -0.999289 14.3567L1.00013 14.3083ZM1 14.3617C1 14.3615 1 14.3613 1.00001 14.3612L-0.99917 14.3038C-0.999723 14.3231 -1 14.3424 -1 14.3617H1ZM1 16.1064L1 14.3617H-1V16.1064H1ZM0.999999 16.1064H1H-1C-1 17.211 -0.10457 18.1064 0.999999 18.1064L0.999999 16.1064ZM3.61307 16.1064H0.999999L0.999999 18.1064H3.61307V16.1064ZM2.87234 45.1915C2.87234 44.0504 3.59001 25.9497 4.60635 17.2221L2.61978 16.9907C1.59307 25.8074 0.87234 43.9864 0.87234 45.1915H2.87234ZM4.68085 47C3.68204 47 2.87234 46.1903 2.87234 45.1915H0.87234C0.87234 47.2949 2.57747 49 4.68085 49V47ZM6.48936 45.1915C6.48936 46.1903 5.67966 47 4.68085 47V49C6.78423 49 8.48936 47.2949 8.48936 45.1915H6.48936ZM4.75535 17.2221C5.77169 25.9497 6.48936 44.0504 6.48936 45.1915H8.48936C8.48936 43.9864 7.76863 25.8074 6.74192 16.9907L4.75535 17.2221ZM7.42553 16.1064H5.74864V18.1064H7.42553V16.1064ZM7.42553 16.1064L7.42553 16.1064V18.1064C8.5301 18.1064 9.42553 17.211 9.42553 16.1064H7.42553ZM7.42553 14.3617V16.1064H9.42553V14.3617H7.42553ZM7.42552 14.3612L7.42553 14.3617H9.42553C9.42553 14.3424 9.42525 14.3231 9.42471 14.3039L7.42552 14.3612Z" fill="#282057" mask="url(#path-7-inside-2)"/>
</svg>
