<svg width="69" height="69" viewBox="0 0 69 69" fill="none" xmlns="http://www.w3.org/2000/svg">
<rect x="2" width="65" height="65" fill="white"/>
<path d="M32.5979 5.8541C33.1966 4.01148 35.8034 4.01148 36.4021 5.8541L41.7967 22.4569C42.0645 23.281 42.8324 23.8389 43.6988 23.8389H61.1561C63.0935 23.8389 63.8991 26.3181 62.3317 27.4569L48.2084 37.7181C47.5075 38.2274 47.2141 39.1301 47.4819 39.9541L52.8765 56.557C53.4752 58.3996 51.3662 59.9319 49.7988 58.7931L35.6756 48.5319C34.9746 48.0226 34.0254 48.0226 33.3244 48.5319L19.2012 58.7931C17.6338 59.9319 15.5248 58.3996 16.1235 56.557L21.5181 39.9541C21.7859 39.1301 21.4925 38.2274 20.7916 37.7181L6.66834 27.4569C5.10092 26.3181 5.90647 23.8389 7.84392 23.8389H25.3012C26.1676 23.8389 26.9355 23.281 27.2033 22.4569L32.5979 5.8541Z" fill="#C4C4C4"/>
</svg>
