<svg width="59" height="56" viewBox="0 0 59 56" fill="none" xmlns="http://www.w3.org/2000/svg">
<path d="M27.5979 1.8541C28.1966 0.0114765 30.8034 0.0114799 31.4021 1.8541L36.7967 18.4569C37.0645 19.281 37.8324 19.8389 38.6988 19.8389H56.1561C58.0935 19.8389 58.8991 22.3181 57.3317 23.4569L43.2084 33.7181C42.5075 34.2274 42.2141 35.1301 42.4819 35.9541L47.8765 52.557C48.4752 54.3996 46.3662 55.9319 44.7988 54.7931L30.6756 44.5319C29.9746 44.0226 29.0254 44.0226 28.3244 44.5319L14.2012 54.7931C12.6338 55.9319 10.5248 54.3996 11.1235 52.557L16.5181 35.9541C16.7859 35.1301 16.4925 34.2274 15.7916 33.7181L1.66834 23.4569C0.100915 22.3181 0.906469 19.8389 2.84392 19.8389H20.3012C21.1676 19.8389 21.9355 19.281 22.2033 18.4569L27.5979 1.8541Z" fill="#FFC700"/>
</svg>
