<svg width="43" height="54" viewBox="0 0 43 54" fill="none" xmlns="http://www.w3.org/2000/svg">
<rect x="21.5" y="13.5" width="20" height="39" rx="1.5" stroke="#282057" stroke-width="3"/>
<rect x="29" y="18" width="2" height="2" fill="#282057"/>
<rect x="33" y="18" width="2" height="2" fill="#282057"/>
<rect x="37" y="18" width="2" height="2" fill="#282057"/>
<rect x="29" y="22" width="2" height="2" fill="#282057"/>
<rect x="33" y="22" width="2" height="2" fill="#282057"/>
<rect x="37" y="22" width="2" height="2" fill="#282057"/>
<rect x="29" y="26" width="2" height="2" fill="#282057"/>
<rect x="33" y="26" width="2" height="2" fill="#282057"/>
<rect x="37" y="26" width="2" height="2" fill="#282057"/>
<rect x="29" y="30" width="2" height="2" fill="#282057"/>
<rect x="33" y="30" width="2" height="2" fill="#282057"/>
<rect x="37" y="30" width="2" height="2" fill="#282057"/>
<rect x="29" y="34" width="2" height="2" fill="#282057"/>
<rect x="33" y="34" width="2" height="2" fill="#282057"/>
<rect x="37" y="34" width="2" height="2" fill="#282057"/>
<rect x="29" y="38" width="2" height="2" fill="#282057"/>
<rect x="33" y="38" width="2" height="2" fill="#282057"/>
<rect x="37" y="38" width="2" height="2" fill="#282057"/>
<rect x="29" y="42" width="2" height="2" fill="#282057"/>
<rect x="33" y="42" width="2" height="2" fill="#282057"/>
<rect x="37" y="42" width="2" height="2" fill="#282057"/>
<rect x="29" y="46" width="2" height="2" fill="#282057"/>
<rect x="33" y="46" width="2" height="2" fill="#282057"/>
<rect x="37" y="46" width="2" height="2" fill="#282057"/>
<rect x="1.5" y="1.5" width="27" height="51" rx="1.5" fill="#FFFCFC" stroke="#282057" stroke-width="3"/>
<rect x="14" y="8" width="4" height="4" fill="#282057"/>
<rect x="22" y="8" width="4" height="4" fill="#282057"/>
<rect x="6" y="8" width="4" height="4" fill="#282057"/>
<rect x="14" y="24" width="4" height="4" fill="#282057"/>
<rect x="22" y="24" width="4" height="4" fill="#282057"/>
<rect x="6" y="24" width="4" height="4" fill="#282057"/>
<rect x="14" y="40" width="4" height="4" fill="#282057"/>
<rect x="22" y="40" width="4" height="4" fill="#282057"/>
<rect x="6" y="40" width="4" height="4" fill="#282057"/>
<rect x="14" y="16" width="4" height="4" fill="#282057"/>
<rect x="22" y="16" width="4" height="4" fill="#282057"/>
<rect x="6" y="16" width="4" height="4" fill="#282057"/>
<rect x="14" y="32" width="4" height="4" fill="#282057"/>
<rect x="22" y="32" width="4" height="4" fill="#282057"/>
<rect x="6" y="32" width="4" height="4" fill="#282057"/>
</svg>
