<svg width="65" height="55" viewBox="0 0 65 55" fill="none" xmlns="http://www.w3.org/2000/svg">
<rect x="1.5" y="1.5" width="62" height="41" rx="1.5" fill="white" stroke="#282057" stroke-width="3"/>
<path d="M19 53H46" stroke="#282057" stroke-width="3" stroke-linecap="round"/>
<line x1="33.5" y1="42" x2="33.5" y2="52" stroke="#282057" stroke-width="3"/>
<path d="M60 6.01124L60.449 7.6727H61.9021L60.7265 8.69954L61.1756 10.361L60 9.33417L58.8244 10.361L59.2735 8.69954L58.0979 7.6727H59.551L60 6.01124Z" fill="#282057"/>
<path d="M59 3.60674L59.2245 4.43748H59.9511L59.3633 4.9509L59.5878 5.78163L59 5.26821L58.4122 5.78163L58.6367 4.9509L58.0489 4.43748H58.7755L59 3.60674Z" fill="#282057"/>
<path d="M57 6.01124L57.2245 6.84197H57.9511L57.3633 7.35539L57.5878 8.18612L57 7.6727L56.4122 8.18612L56.6367 7.35539L56.0489 6.84197H56.7755L57 6.01124Z" fill="#282057"/>
</svg>
