<svg width="58" height="45" viewBox="0 0 58 45" fill="none" xmlns="http://www.w3.org/2000/svg">
<path d="M18 35L27 26L36 35" stroke="#282057" stroke-width="3" stroke-linecap="round"/>
<path d="M26.9926 26.7494L26.9926 43.2359" stroke="#282057" stroke-width="3" stroke-linecap="round"/>
<path d="M11.7509 39.0038C6.36565 39.0038 2 34.6381 2 29.2528C2 23.8675 6.36565 19.5019 11.7509 19.5019" stroke="#282057" stroke-width="3"/>
<path d="M11.7509 39.0038C6.36565 39.0038 2 34.6381 2 29.2528C2 23.8675 6.36565 19.5019 11.7509 19.5019" stroke="#282057" stroke-width="3"/>
<path d="M35.2712 17.0494C35.6133 11.5448 32.3198 6.24997 26.8677 4.29429C20.2559 1.92262 12.9733 5.35993 10.6016 11.9717C9.59421 14.7803 9.63492 17.7098 10.5219 20.3326" stroke="#282057" stroke-width="3"/>
<path d="M35.2712 17.0494C35.6133 11.5448 32.3198 6.24997 26.8677 4.29429C20.2559 1.92262 12.9733 5.35993 10.6016 11.9717C9.59421 14.7803 9.63492 17.7098 10.5219 20.3326" stroke="#282057" stroke-width="3"/>
<path d="M41.0031 40.785C48.9631 40.9037 55.5122 34.5472 55.631 26.5872C55.7498 18.6272 49.3932 12.078 41.4332 11.9593C39.3176 11.9277 37.3016 12.3536 35.4795 13.1454" stroke="#282057" stroke-width="3"/>
<path d="M41.0031 40.785C48.9631 40.9037 55.5122 34.5472 55.631 26.5872C55.7498 18.6272 49.3932 12.078 41.4332 11.9593C39.3176 11.9277 37.3016 12.3536 35.4795 13.1454" stroke="#282057" stroke-width="3"/>
</svg>
