<svg width="66" height="46" viewBox="0 0 66 46" fill="none" xmlns="http://www.w3.org/2000/svg">
<path d="M8.19231 22.7204C13.4788 14.7311 22.6166 10.4615 33.0033 10.4615C42.8764 10.4615 51.6211 15.2929 57.0022 22.7204" stroke="#282057" stroke-width="3"/>
<path d="M1.42308 17.2308C8.20481 7.30459 19.9272 2 33.2516 2C45.9173 2 57.1354 8.00263 64.0385 17.2308" stroke="#282057" stroke-width="3"/>
<path d="M14.9615 27.3846C18.8106 21.8701 25.4639 18.9231 33.0264 18.9231C40.215 18.9231 46.582 22.2579 50.5 27.3846" stroke="#282057" stroke-width="3"/>
<path d="M21.7308 32.4615C24.1135 29.1528 28.2322 27.3846 32.9138 27.3846C37.3639 27.3846 41.3054 29.3855 43.7308 32.4615" stroke="#282057" stroke-width="3"/>
<circle cx="32.7308" cy="40.0769" r="5.92308" fill="#282057"/>
</svg>
